Coordinates
version=1
nRows=12
nColumns=23
inDegrees=yes

Units are S.I. units (second, meters, Newtons, ...)
If the header above contains a line with 'inDegrees', this indicates whether rotational values are in degrees (yes) or radians (no).

endheader
time	pelvis_tilt	pelvis_list	pelvis_rotation	pelvis_tx	pelvis_ty	pelvis_tz	hip_flexion_r	hip_adduction_r	hip_rotation_r	knee_angle_r	knee_angle_r_beta	ankle_angle_r	subtalar_angle_r	mtp_angle_r	hip_flexion_l	hip_adduction_l	hip_rotation_l	knee_angle_l	knee_angle_l_beta	ankle_angle_l	subtalar_angle_l	mtp_angle_l
     15.00000000	     -7.21994801	     -3.40881039	     -1.44287819	      2.41358825	      1.02458039	      1.01717262	     36.18794523	      5.00653440	     -6.94793352	     27.37591586	      0.47779987	      1.88836963	      9.87777396	      0.00000000	     -8.23267675	     -3.90870332	     -2.54252022	     81.27456255	      1.41850871	    -31.02483709	    -15.95211839	      0.00000000
     15.00666667	     -7.25602804	     -3.70242507	     -2.06558909	      2.41184854	      1.01977007	      1.01730703	     36.29544539	      5.66957342	     -6.85665516	     29.96627758	      0.52301021	      2.91957441	      8.26692735	      0.00000000	     -6.37980636	     -4.24533349	     -2.57925729	     85.58599666	      1.49375744	    -32.66140518	    -16.63738882	      0.00000000
     15.01333333	     -7.36000356	     -3.94623169	     -2.64932325	      2.40990170	      1.01475225	      1.01748590	     36.40187102	      6.35000751	     -6.46130345	     32.71789943	      0.57103507	      4.34695866	      6.42627651	      0.00000000	     -4.35851311	     -4.62471966	     -2.58155179	     89.74219447	      1.56629677	    -33.71489558	    -17.06043442	      0.00000000
     15.02000000	     -7.48598548	     -4.12709566	     -3.15746340	      2.40777735	      1.00972210	      1.01770100	     36.40903340	      7.03015098	     -5.79431370	     35.48323232	      0.61929923	      6.17301241	      4.48236019	      0.00000000	     -2.20894752	     -5.03115419	     -2.49762965	     93.71072483	      1.63556069	    -34.13915899	    -17.20521017	      0.00000000
     15.02666667	     -7.60533020	     -4.27973908	     -3.59137107	      2.40550704	      1.00484065	      1.01789900	     36.25304620	      7.69468756	     -5.02747906	     38.15083568	      0.66585770	      8.29180817	      2.69926080	      0.00000000	      0.03970424	     -5.50975470	     -2.34520302	     97.45837996	      1.70096961	    -33.97330061	    -17.09384012	      0.00000000
     15.03333333	     -7.74005342	     -4.39967724	     -3.93316071	      2.40303816	      1.00022831	      1.01804444	     35.93434395	      8.32486479	     -4.18420074	     40.61245312	      0.70882102	     10.61614529	      1.18679284	      0.00000000	      2.44026573	     -6.02068839	     -2.06351139	    100.98687119	      1.76255340	    -33.27463254	    -16.71434518	      0.00000000
     15.04000000	     -7.78565126	     -4.53479618	     -4.20512421	      2.40052191	      0.99609408	      1.01817427	     35.31215983	      8.91487367	     -3.38723048	     42.80937269	      0.74716450	     13.10141362	      0.09942947	      0.00000000	      4.85668029	     -6.63421305	     -1.71425204	    104.23818124	      1.81929947	    -32.18665972	    -16.10991290	      0.00000000
     15.04666667	     -7.83206226	     -4.62092722	     -4.36375337	      2.39786588	      0.99248562	      1.01816992	     34.47624436	      9.39453625	     -2.58213085	     44.65176601	      0.77932033	     15.57778749	     -0.72909040	      0.00000000	      7.44011585	     -7.20601381	     -1.20525747	    107.22269753	      1.87138910	    -30.73757063	    -15.28751089	      0.00000000
     15.05333333	     -7.81250969	     -4.69344821	     -4.44435793	      2.39524584	      0.98951757	      1.01804880	     33.34587717	      9.77186659	     -1.83923362	     46.12406331	      0.80501677	     17.99048967	     -1.22839074	      0.00000000	     10.08160730	     -7.75482955	     -0.60162843	    109.88883173	      1.91792192	    -29.05805925	    -14.33031325	      0.00000000
     15.06000000	     -7.40074493	     -4.71313727	     -4.41929404	      2.39282028	      0.98767517	      1.01770980	     31.54272503	      9.97724592	     -1.11677956	     47.17307172	      0.82332542	     20.30050228	     -1.56399675	      0.00000000	     12.36462205	     -8.16863386	      0.04910054	    112.11740884	      1.95681793	    -27.46910800	    -14.09110263	      0.00000000
     15.06666667	     -7.61738682	     -4.74006982	     -4.43145443	      2.39032337	      0.98555283	      1.01761716	     30.27100330	     10.14014199	     -0.60264878	     47.92760837	      0.83649457	     22.38985735	     -1.34498964	      0.00000000	     15.51111965	     -8.66984333	      0.74420529	    114.16650068	      1.99258133	    -25.26368111	    -12.17284380	      0.00000000
     15.07333333	     -7.49136367	     -4.65519497	     -4.33186484	      2.38818007	      0.98448902	      1.01727876	     28.40165825	     10.06032001	     -0.14647329	     48.27672088	      0.84258773	     24.25408560	     -1.09338620	      0.00000000	     18.29997569	     -8.92604238	      1.41524192	    115.73385270	      2.01993679	    -23.22459359	    -11.19396983	      0.00000000
